<svg enable-background="new 0 0 64 64" viewBox="0 0 64 64" xmlns="http://www.w3.org/2000/svg"><g stroke-linecap="round" stroke-linejoin="round" stroke-miterlimit="10"><path d="m27 36.5h-16c-5.5 0-10 4.5-10 10v11.5c0 1.4 1.1 2.5 2.5 2.5h31c1.4 0 2.5-1.1 2.5-2.5v-11.5c0-5.5-4.5-10-10-10z" fill="#d32f2f" stroke="#37474f"/><path d="m27 32.5h-16c-5.5 0-10 4.5-10 10v11.5c0 1.4 1.1 2.5 2.5 2.5h31c1.4 0 2.5-1.1 2.5-2.5v-11.5c0-5.5-4.5-10-10-10z" fill="#ef5350" stroke="#37474f"/><path d="m3 42.5c0-4.4 3.6-8 8-8" fill="none" stroke="#ef9a9a"/><g stroke="#37474f"><path d="m9 56.5v-11" fill="#eceff1"/><path d="m29 56.5v-11" fill="#eceff1"/><circle cx="19" cy="20.5" fill="#eceff1" r="12"/><path d="m14.4 25.1c2.5 2.5 6.7 2.5 9.2 0" fill="none"/><path d="m28.8 13.6-21.5 4.2c1.2-5.3 6-9.3 11.7-9.3 4.1 0 7.6 2 9.8 5.1z" fill="#78909c"/><path d="m26.8 11.4c2.5 2.2 4.2 5.4 4.2 9.1-2.3 0-4.2-1.9-4.2-4.2z" fill="#78909c"/><path d="m25.1 42.5-6-4-6 4v-10h12z" fill="#ffca28"/><path d="m19.1 38.5-6-6h12z" fill="#eceff1"/><path d="m31 12.5v13c0 2.8 2.2 5 5 5h3c.6 0 1 .4 1 1v4.6c0 .9 1.1 1.3 1.7.7l4.8-4.8c.9-.9 2.2-1.5 3.5-1.5h8c2.8 0 5-2.2 5-5v-13c0-2.8-2.2-5-5-5h-22c-2.8 0-5 2.2-5 5z" fill="#0097a7"/><path d="m31 8.5v13c0 2.8 2.2 5 5 5h3c.6 0 1 .4 1 1v4.6c0 .9 1.1 1.3 1.7.7l4.8-4.8c.9-.9 2.2-1.5 3.5-1.5h8c2.8 0 5-2.2 5-5v-13c0-2.8-2.2-5-5-5h-22c-2.8 0-5 2.2-5 5z" fill="#26c6da"/></g><path d="m33 12.5v-4c0-1.7 1.3-3 3-3h4" fill="none" stroke="#80deea"/><path d="m37 10.5h20" fill="none" stroke="#37474f"/><path d="m37 15h20" fill="none" stroke="#37474f"/><path d="m37 19.5h10" fill="none" stroke="#37474f"/></g></svg>